<svg xmlns="http://www.w3.org/2000/svg" viewBox="0 0 32 32">
  <defs>
    <linearGradient id="g" x1="0%" y1="0%" x2="100%" y2="100%">
      <stop offset="0%" stop-color="#81A6C6"/>
      <stop offset="100%" stop-color="#5d8aad"/>
    </linearGradient>
  </defs>
  <rect width="32" height="32" rx="8" fill="#faf6f1"/>
  <g fill="url(#g)" transform="translate(4, 3)">
    <ellipse cx="5.5" cy="5" rx="2.2" ry="2.8"/>
    <ellipse cx="18.5" cy="5" rx="2.2" ry="2.8"/>
    <ellipse cx="2.5" cy="11" rx="1.8" ry="2.2"/>
    <ellipse cx="21.5" cy="11" rx="1.8" ry="2.2"/>
    <path d="M12 22c-4 0-6.5-3.2-6.5-5.5 0-1.8 1.4-3.2 3.2-4 .9-.4 2-.5 3.3-.5s2.4.1 3.3.5c1.8.8 3.2 2.2 3.2 4 0 2.3-2.5 5.5-6.5 5.5z"/>
  </g>
</svg>